<svg width="133" height="100" viewBox="0 0 133 100" fill="none" xmlns="http://www.w3.org/2000/svg">
<path d="M12.1474 9.90909C12.0451 9.04545 11.6303 8.375 10.9031 7.89773C10.1758 7.42045 9.28374 7.18182 8.22692 7.18182C7.45419 7.18182 6.77805 7.30682 6.19851 7.55682C5.62465 7.80682 5.17578 8.15057 4.85192 8.58807C4.53374 9.02557 4.37465 9.52273 4.37465 10.0795C4.37465 10.5455 4.48544 10.946 4.70703 11.2812C4.9343 11.6108 5.22408 11.8864 5.57635 12.108C5.92862 12.3239 6.29794 12.5028 6.6843 12.6449C7.07067 12.7812 7.42578 12.892 7.74964 12.9773L9.52237 13.4545C9.97692 13.5739 10.4826 13.7386 11.0394 13.9489C11.6019 14.1591 12.1388 14.446 12.6502 14.8097C13.1673 15.1676 13.5934 15.6278 13.9286 16.1903C14.2639 16.7528 14.4315 17.4432 14.4315 18.2614C14.4315 19.2045 14.1843 20.0568 13.69 20.8182C13.2013 21.5795 12.4854 22.1847 11.5423 22.6335C10.6048 23.0824 9.46555 23.3068 8.12464 23.3068C6.87464 23.3068 5.79226 23.1051 4.87749 22.7017C3.96839 22.2983 3.25249 21.7358 2.72976 21.0142C2.21271 20.2926 1.9201 19.4545 1.85192 18.5H4.03374C4.09055 19.1591 4.31214 19.7045 4.69851 20.1364C5.09055 20.5625 5.58487 20.8807 6.18146 21.0909C6.78374 21.2955 7.43146 21.3977 8.12464 21.3977C8.93146 21.3977 9.6559 21.267 10.2979 21.0057C10.94 20.7386 11.4485 20.3693 11.8235 19.8977C12.1985 19.4205 12.386 18.8636 12.386 18.2273C12.386 17.6477 12.2241 17.1761 11.9002 16.8125C11.5763 16.4489 11.1502 16.1534 10.6218 15.9261C10.0934 15.6989 9.52237 15.5 8.90874 15.3295L6.76101 14.7159C5.39737 14.3239 4.31783 13.7642 3.52237 13.0369C2.72692 12.3097 2.32919 11.358 2.32919 10.1818C2.32919 9.20454 2.59339 8.35227 3.1218 7.625C3.65589 6.89205 4.3718 6.32386 5.26953 5.92045C6.17294 5.51136 7.18146 5.30682 8.2951 5.30682C9.4201 5.30682 10.4201 5.50852 11.2951 5.91193C12.1701 6.30966 12.8633 6.85511 13.3746 7.54829C13.8917 8.24148 14.1644 9.02841 14.1928 9.90909H12.1474ZM22.9521 23.2727C21.7248 23.2727 20.668 22.983 19.7816 22.4034C18.8952 21.8239 18.2134 21.0256 17.7362 20.0085C17.2589 18.9915 17.0202 17.8295 17.0202 16.5227C17.0202 15.1932 17.2646 14.0199 17.7532 13.0028C18.2475 11.9801 18.935 11.1818 19.8157 10.608C20.7021 10.0284 21.7362 9.73864 22.918 9.73864C23.8384 9.73864 24.668 9.90909 25.4066 10.25C26.1452 10.5909 26.7504 11.0682 27.2219 11.6818C27.6935 12.2955 27.9862 13.0114 28.0998 13.8295H26.0884C25.935 13.233 25.5941 12.7045 25.0657 12.2443C24.543 11.7784 23.8384 11.5455 22.9521 11.5455C22.168 11.5455 21.4805 11.75 20.8896 12.1591C20.3043 12.5625 19.8469 13.1335 19.5174 13.8722C19.1935 14.6051 19.0316 15.4659 19.0316 16.4545C19.0316 17.4659 19.1907 18.3466 19.5089 19.0966C19.8327 19.8466 20.2873 20.429 20.8725 20.8438C21.4634 21.2585 22.1566 21.4659 22.9521 21.4659C23.4748 21.4659 23.9492 21.375 24.3754 21.1932C24.8015 21.0114 25.1623 20.75 25.4577 20.4091C25.7532 20.0682 25.9634 19.6591 26.0884 19.1818H28.0998C27.9862 19.9545 27.7049 20.6506 27.256 21.2699C26.8129 21.8835 26.2248 22.3722 25.4918 22.7358C24.7646 23.0938 23.918 23.2727 22.9521 23.2727ZM31.0401 23V9.90909H32.9833V11.8864H33.1197C33.3583 11.2386 33.7901 10.7131 34.4151 10.3097C35.0401 9.90625 35.7447 9.70454 36.5288 9.70454C36.6765 9.70454 36.8612 9.70739 37.0827 9.71307C37.3043 9.71875 37.4719 9.72727 37.5856 9.73864V11.7841C37.5174 11.767 37.3612 11.7415 37.1168 11.7074C36.8782 11.6676 36.6254 11.6477 36.3583 11.6477C35.7219 11.6477 35.1538 11.7812 34.6538 12.0483C34.1594 12.3097 33.7674 12.6733 33.4776 13.1392C33.1935 13.5994 33.0515 14.125 33.0515 14.7159V23H31.0401ZM44.8896 23.2727C43.7077 23.2727 42.6708 22.9915 41.7788 22.429C40.8924 21.8665 40.1992 21.0795 39.6992 20.0682C39.2049 19.0568 38.9577 17.875 38.9577 16.5227C38.9577 15.1591 39.2049 13.9687 39.6992 12.9517C40.1992 11.9347 40.8924 11.1449 41.7788 10.5824C42.6708 10.0199 43.7077 9.73864 44.8896 9.73864C46.0714 9.73864 47.1055 10.0199 47.9918 10.5824C48.8839 11.1449 49.5771 11.9347 50.0714 12.9517C50.5714 13.9687 50.8214 15.1591 50.8214 16.5227C50.8214 17.875 50.5714 19.0568 50.0714 20.0682C49.5771 21.0795 48.8839 21.8665 47.9918 22.429C47.1055 22.9915 46.0714 23.2727 44.8896 23.2727ZM44.8896 21.4659C45.7873 21.4659 46.5259 21.2358 47.1055 20.7756C47.685 20.3153 48.114 19.7102 48.3924 18.9602C48.6708 18.2102 48.81 17.3977 48.81 16.5227C48.81 15.6477 48.6708 14.8324 48.3924 14.0767C48.114 13.321 47.685 12.7102 47.1055 12.2443C46.5259 11.7784 45.7873 11.5455 44.8896 11.5455C43.9918 11.5455 43.2532 11.7784 42.6737 12.2443C42.0941 12.7102 41.6651 13.321 41.3867 14.0767C41.1083 14.8324 40.9691 15.6477 40.9691 16.5227C40.9691 17.3977 41.1083 18.2102 41.3867 18.9602C41.6651 19.7102 42.0941 20.3153 42.6737 20.7756C43.2532 21.2358 43.9918 21.4659 44.8896 21.4659ZM55.9031 5.54545V23H53.8917V5.54545H55.9031ZM61.5984 5.54545V23H59.587V5.54545H61.5984ZM76.9755 23.2727C75.8846 23.2727 74.9215 22.9972 74.0863 22.446C73.2511 21.8892 72.5977 21.1051 72.1261 20.0938C71.6545 19.0767 71.4187 17.875 71.4187 16.4886C71.4187 15.1136 71.6545 13.9205 72.1261 12.9091C72.5977 11.8977 73.2539 11.1165 74.0948 10.5653C74.9357 10.0142 75.9073 9.73864 77.0096 9.73864C77.8619 9.73864 78.5352 9.88068 79.0295 10.1648C79.5295 10.4432 79.9102 10.7614 80.1715 11.1193C80.4386 11.4716 80.646 11.7614 80.7937 11.9886H80.9641V5.54545H82.9755V23H81.0323V20.9886H80.7937C80.646 21.2273 80.4357 21.5284 80.163 21.892C79.8903 22.25 79.5011 22.571 78.9954 22.8551C78.4897 23.1335 77.8164 23.2727 76.9755 23.2727ZM77.2482 21.4659C78.055 21.4659 78.7369 21.2557 79.2937 20.8352C79.8505 20.4091 80.2738 19.821 80.5636 19.071C80.8533 18.3153 80.9982 17.4432 80.9982 16.4545C80.9982 15.4773 80.8562 14.6222 80.5721 13.8892C80.288 13.1506 79.8675 12.5767 79.3107 12.1676C78.7539 11.7528 78.0664 11.5455 77.2482 11.5455C76.396 11.5455 75.6857 11.7642 75.1175 12.2017C74.555 12.6335 74.1317 13.2216 73.8477 13.9659C73.5692 14.7045 73.43 15.5341 73.43 16.4545C73.43 17.3864 73.5721 18.233 73.8562 18.9943C74.146 19.75 74.5721 20.3523 75.1346 20.8011C75.7028 21.2443 76.4073 21.4659 77.2482 21.4659ZM92.2567 23.2727C91.0749 23.2727 90.038 22.9915 89.146 22.429C88.2596 21.8665 87.5664 21.0795 87.0664 20.0682C86.5721 19.0568 86.3249 17.875 86.3249 16.5227C86.3249 15.1591 86.5721 13.9687 87.0664 12.9517C87.5664 11.9347 88.2596 11.1449 89.146 10.5824C90.038 10.0199 91.0749 9.73864 92.2567 9.73864C93.4386 9.73864 94.4727 10.0199 95.359 10.5824C96.2511 11.1449 96.9442 11.9347 97.4386 12.9517C97.9386 13.9687 98.1886 15.1591 98.1886 16.5227C98.1886 17.875 97.9386 19.0568 97.4386 20.0682C96.9442 21.0795 96.2511 21.8665 95.359 22.429C94.4727 22.9915 93.4386 23.2727 92.2567 23.2727ZM92.2567 21.4659C93.1545 21.4659 93.8931 21.2358 94.4727 20.7756C95.0522 20.3153 95.4812 19.7102 95.7596 18.9602C96.038 18.2102 96.1772 17.3977 96.1772 16.5227C96.1772 15.6477 96.038 14.8324 95.7596 14.0767C95.4812 13.321 95.0522 12.7102 94.4727 12.2443C93.8931 11.7784 93.1545 11.5455 92.2567 11.5455C91.359 11.5455 90.6204 11.7784 90.0408 12.2443C89.4613 12.7102 89.0323 13.321 88.7539 14.0767C88.4755 14.8324 88.3363 15.6477 88.3363 16.5227C88.3363 17.3977 88.4755 18.2102 88.7539 18.9602C89.0323 19.7102 89.4613 20.3153 90.0408 20.7756C90.6204 21.2358 91.359 21.4659 92.2567 21.4659ZM103.779 23L99.7908 9.90909H101.904L104.734 19.9318H104.87L107.666 9.90909H109.814L112.575 19.8977H112.711L115.541 9.90909H117.654L113.666 23H111.689L108.825 12.9432H108.62L105.757 23H103.779ZM122.325 15.125V23H120.314V9.90909H122.257V11.9545H122.427C122.734 11.2898 123.2 10.7557 123.825 10.3523C124.45 9.94318 125.257 9.73864 126.245 9.73864C127.132 9.73864 127.907 9.92045 128.572 10.2841C129.237 10.642 129.754 11.1875 130.123 11.9205C130.493 12.6477 130.677 13.5682 130.677 14.6818V23H128.666V14.8182C128.666 13.7898 128.399 12.9886 127.865 12.4148C127.331 11.8352 126.598 11.5455 125.666 11.5455C125.024 11.5455 124.45 11.6847 123.944 11.9631C123.444 12.2415 123.049 12.6477 122.76 13.1818C122.47 13.7159 122.325 14.3636 122.325 15.125Z" fill="white"/>
<path d="M65.7776 98.7224C66.1766 99.1214 66.8234 99.1214 67.2224 98.7224L73.7241 92.2207C74.1231 91.8217 74.1231 91.1749 73.7241 90.7759C73.3251 90.3769 72.6783 90.3769 72.2793 90.7759L66.5 96.5552L60.7207 90.7759C60.3217 90.3769 59.6749 90.3769 59.2759 90.7759C58.8769 91.1749 58.8769 91.8217 59.2759 92.2207L65.7776 98.7224ZM65.4784 47L65.4784 98L67.5216 98L67.5216 47L65.4784 47Z" fill="#FFC13E"/>
</svg>
